#!OML:ASF F:\VICON\USERDATA\INSTALL\rory3\rory3.ASF
:FULLY-SPECIFIED
:DEGREES
915
root -0.232508 16.3149 -0.66635 -159.262 -6.15959 177.794
lowerback -15.0683 0.347588 -1.30976
upperback -5.73359 -0.106618 0.247096
thorax 2.37694 -0.358902 0.967298
lowerneck -12.7179 1.23223 -1.14528
upperneck 39.1814 -3.40919 1.76651
head 16.1685 -2.92558 -0.059335
rclavicle 4.72114e-016 -3.18055e-015
rhumerus -46.0687 -18.0969 -63.7993
rradius 13.7037
rwrist 11.6981
rhand -28.1058 24.4646
rfingers 7.12502
rthumb -1.48811 -5.50994
lclavicle 4.72114e-016 -3.18055e-015
lhumerus -53.0842 19.1143 68.1864
lradius 33.2074
lwrist -8.263
lhand -16.6622 19.391
lfingers 7.12502
lthumb 9.56131 49.154
rfemur -24.7869 -20.5141 26.0426
rtibia 59.5483
rfoot 34.0697 -17.9617
rtoes 18.5837
lfemur -38.2038 0.502366 -34.6117
ltibia 42.6365
lfoot -33.5932 19.3845
ltoes 2.06431
916
root -0.233818 16.3161 -0.66647 -159.33 -6.13494 178.319
lowerback -15.0525 0.422865 -0.82959
upperback -5.7389 -0.0838868 0.433756
thorax 2.36525 -0.351333 0.895028
lowerneck -12.6849 1.28785 -1.21242
upperneck 39.0878 -3.26015 1.75419
head 16.1074 -2.86832 -0.0230658
rclavicle -2.07481e-015 -1.19271e-015
rhumerus -46.3204 -19.0086 -63.136
rradius 13.5601
rwrist 12.1343
rhand -27.934 23.7255
rfingers 7.12502
rthumb -1.32221 -6.25011
lclavicle -2.07481e-015 -1.19271e-015
lhumerus -53.1068 18.9875 68.6898
lradius 32.9702
lwrist -8.8896
lhand -16.2239 19.9165
lfingers 7.12502
lthumb 9.98417 49.6597
rfemur -24.716 -20.3261 26.5771
rtibia 59.4779
rfoot 34.0303 -18.5091
rtoes 20.1231
lfemur -38.2821 0.615194 -34.0423
ltibia 42.6773
lfoot -33.7202 19.3107
ltoes 2.41676
917
root -0.234709 16.3167 -0.671048 -159.402 -6.052 178.397
lowerback -15.0044 0.449073 -0.795533
upperback -5.76269 -0.058899 0.474466
thorax 2.31426 -0.33987 0.922691
lowerneck -12.6168 1.35486 -1.14468
upperneck 39.0517 -3.12608 1.65921
head 16.065 -2.81504 -0.0516026
rclavicle -5.08143e-015 -8.74653e-015
rhumerus -46.6278 -19.6113 -62.7286
rradius 13.4685
rwrist 12.1437
rhand -28.0339 22.9226
rfingers 7.12502
rthumb -1.41864 -7.05244
lclavicle -5.08143e-015 -8.74653e-015
lhumerus -53.1421 19.2071 68.8057
lradius 32.2773
lwrist -10.1299
lhand -16.2113 19.8938
lfingers 7.12502
lthumb 9.99626 49.6364
rfemur -24.6096 -20.3692 26.5966
rtibia 59.4807
rfoot 34.0387 -18.7342
rtoes 20.5769
lfemur -38.2248 0.672956 -33.9779
ltibia 42.6642
lfoot -33.5563 19.7219
ltoes 1.50959
918
root -0.231378 16.3168 -0.66718 -159.332 -5.80677 178.401
lowerback -14.9922 0.523704 -0.917861
upperback -5.771 0.0545733 0.47539
thorax 2.29548 -0.283126 1.01165
lowerneck -12.7794 1.37663 -1.151
upperneck 39.0028 -3.05817 1.71359
head 16.0791 -2.76394 -0.0131618
rclavicle -3.36692e-015 -4.37326e-015
rhumerus -46.7822 -19.9408 -62.6973
rradius 13.6531
rwrist 11.6063
rhand -27.8391 21.6935
rfingers 7.12502
rthumb -1.23054 -8.28269
lclavicle -3.36692e-015 -4.37326e-015
lhumerus -52.9244 19.4091 68.997
lradius 31.3209
lwrist -11.3385
lhand -16.5954 19.2121
lfingers 7.12502
lthumb 9.62578 48.9722
rfemur -24.7704 -20.2196 26.6094
rtibia 59.5348
rfoot 34.1192 -18.522
rtoes 19.6631
lfemur -38.3498 0.64528 -33.9992
ltibia 42.6675
lfoot -33.6215 20.11
ltoes 1.20428
919
root -0.229359 16.3184 -0.665234 -159.218 -5.45197 178.267
lowerback -15.1037 0.569528 -1.19773
upperback -5.6866 0.164124 0.466769
thorax 2.4382 -0.223965 1.17911
lowerneck -13.1292 1.37472 -1.22127
upperneck 38.9385 -2.95142 1.71801
head 16.1294 -2.69998 0.0222057
rclavicle -1.54058e-014 -2.78299e-015
rhumerus -46.7427 -20.8363 -62.1922
rradius 13.3904
rwrist 11.5758
rhand -27.5608 21.2188
rfingers 7.12502
rthumb -0.961735 -8.75873
lclavicle -1.54058e-014 -2.78299e-015
lhumerus -52.7482 19.4488 69.4739
lradius 31.0203
lwrist -11.9379
lhand -16.8434 18.531
lfingers 7.12502
lthumb 9.38643 48.302
rfemur -25.0447 -19.9563 26.4302
rtibia 59.6471
rfoot 34.4215 -18.0482
rtoes 18.2681
lfemur -38.4367 0.6278 -34.1836
ltibia 42.5769
lfoot -33.7191 20.2479
ltoes 2.19963
920
root -0.230381 16.3248 -0.665871 -159.168 -5.25176 178.174
lowerback -15.119 0.590655 -1.35424
upperback -5.67737 0.215046 0.451165
thorax 2.4529 -0.197586 1.25984
lowerneck -13.3254 1.44501 -1.12963
upperneck 38.9488 -2.7941 1.62774
head 16.1763 -2.6203 -0.00638429
rclavicle -9.6659e-015 -5.56597e-015
rhumerus -47.0364 -22.4191 -60.9104
rradius 12.8499
rwrist 12.4812
rhand -27.4109 21.3919
rfingers 7.12502
rthumb -0.816979 -8.58624
lclavicle -9.6659e-015 -5.56597e-015
lhumerus -52.8222 19.372 69.8526
lradius 31.0593
lwrist -12.4063
lhand -16.3499 18.9331
lfingers 7.12502
lthumb 9.86263 48.6821
rfemur -25.2643 -19.8152 26.2558
rtibia 59.7391
rfoot 34.6229 -18.1127
rtoes 18.3047
lfemur -38.3962 0.682263 -34.3229
ltibia 42.4605
lfoot -33.5589 20.1102
ltoes 4.02451
921
root -0.231639 16.3306 -0.66676 -159.14 -5.23476 178.149
lowerback -15.1022 0.59301 -1.40012
upperback -5.7373 0.215037 0.448609
thorax 2.38027 -0.20026 1.28303
lowerneck -13.2483 1.49787 -1.00692
upperneck 38.9094 -2.70291 1.53462
head 16.1314 -2.57675 -0.0512172
rclavicle 6.92019e-015 3.57812e-015
rhumerus -47.3379 -22.9441 -60.4597
rradius 12.6736
rwrist 12.1237
rhand -27.1453 21.3678
rfingers 7.12502
rthumb -0.560455 -8.61122
lclavicle 6.92019e-015 3.57812e-015
lhumerus -52.8544 19.6624 69.7742
lradius 30.5541
lwrist -13.3883
lhand -15.6924 19.2292
lfingers 7.12502
lthumb 10.4969 48.9472
rfemur -25.3852 -19.9298 26.1969
rtibia 59.7918
rfoot 34.6339 -18.3248
rtoes 19.3777
lfemur -38.3377 0.742201 -34.3699
ltibia 42.3613
lfoot -33.3788 19.9611
ltoes 4.66062
922
root -0.232873 16.3313 -0.669455 -159.077 -5.20738 178.123
lowerback -15.1549 0.622338 -1.41319
upperback -5.78946 0.247642 0.390665
thorax 2.35242 -0.188514 1.23531
lowerneck -13.2181 1.50885 -0.948242
upperneck 38.9024 -2.7391 1.61629
head 16.1227 -2.57323 -0.0321923
rclavicle -2.17421e-015 -3.97569e-015
rhumerus -47.7343 -23.7573 -59.9062
rradius 12.5963
rwrist 12.119
rhand -26.7949 20.7231
rfingers 7.12502
rthumb -0.22199 -9.25651
lclavicle -2.17421e-015 -3.97569e-015
lhumerus -52.7887 19.6686 69.8591
lradius 30.0538
lwrist -13.8276
lhand -15.5351 19.1633
lfingers 7.12502
lthumb 10.6486 48.8735
rfemur -25.4678 -20.0594 26.1636
rtibia 59.812
rfoot 34.4673 -18.4837
rtoes 20.0625
lfemur -38.3806 0.746414 -34.4052
ltibia 42.3228
lfoot -33.2779 20.0473
ltoes 4.67368
923
root -0.232407 16.3335 -0.671495 -159.119 -5.06628 178.164
lowerback -15.0409 0.641394 -1.40236
upperback -5.86424 0.261203 0.362386
thorax 2.21284 -0.184597 1.20152
lowerneck -13.175 1.57799 -0.935893
upperneck 38.9903 -2.7401 1.76315
head 16.1614 -2.56532 0.0251138
rclavicle 1.02126e-014 -1.59028e-015
rhumerus -48.0863 -24.3877 -59.4763
rradius 12.5613
rwrist 12.2486
rhand -26.4663 19.1696
rfingers 7.12502
rthumb 0.0954059 -10.8101
lclavicle 1.02126e-014 -1.59028e-015
lhumerus -52.8783 19.4663 70.0741
lradius 29.7635
lwrist -13.8132
lhand -15.4964 19.5013
lfingers 7.12502
lthumb 10.686 49.2095
rfemur -25.4398 -20.0355 26.1474
rtibia 59.8358
rfoot 34.3491 -18.8513
rtoes 21.0125
lfemur -38.3643 0.711098 -34.3416
ltibia 42.3361
lfoot -33.5286 20.0327
ltoes 5.24669
924
root -0.236529 16.3368 -0.670803 -159.211 -5.04926 178.551
lowerback -14.962 0.723697 -0.936295
upperback -5.89331 0.299229 0.403847
thorax 2.14476 -0.171291 0.987536
lowerneck -13.0514 1.61994 -0.91186
upperneck 38.9706 -2.73979 1.864
head 16.1228 -2.55518 0.0650416
rclavicle 2.18787e-014 5.96354e-015
rhumerus -48.3726 -24.963 -59.1212
rradius 12.5528
rwrist 12.299
rhand -26.1115 17.7569
rfingers 7.12502
rthumb 0.438045 -12.2224
lclavicle 2.18787e-014 5.96354e-015
lhumerus -52.9784 19.2098 70.2738
lradius 29.686
lwrist -13.6891
lhand -15.1722 19.6307
lfingers 7.12502
lthumb 10.9986 49.3225
rfemur -25.4029 -20.0368 26.5403
rtibia 59.8254
rfoot 34.7745 -18.5314
rtoes 19.7415
lfemur -38.3615 0.781556 -33.9487
ltibia 42.382
lfoot -33.6837 20.0477
ltoes 5.57748
925
root -0.25085 16.3359 -0.664202 -159.248 -5.17894 178.728
lowerback -14.8916 0.790436 -0.496867
upperback -5.89743 0.329962 0.355392
thorax 2.1081 -0.160419 0.693487
lowerneck -12.9323 1.59729 -0.868458
upperneck 38.8329 -2.7832 1.93025
head 16.024 -2.55188 0.0838586
rclavicle -6.48535e-015 -2.38542e-015
rhumerus -48.4736 -25.0862 -59.2781
rradius 12.6584
rwrist 11.6316
rhand -25.537 16.7447
rfingers 7.12502
rthumb 0.992876 -13.2328
lclavicle -6.48535e-015 -2.38542e-015
lhumerus -52.9155 18.908 70.5701
lradius 29.6156
lwrist -13.5179
lhand -14.8779 19.8666
lfingers 7.12502
lthumb 11.2825 49.5431
rfemur -25.4314 -20.4343 26.6617
rtibia 59.8442
rfoot 35.3149 -17.786
rtoes 18.3105
lfemur -38.3471 0.657239 -33.7866
ltibia 42.4384
lfoot -33.8889 20.1278
ltoes 5.01955
926
root -0.238134 16.3369 -0.658013 -159.327 -5.05817 178.584
lowerback -14.8197 0.744682 -0.850879
upperback -5.7462 0.346233 0.357093
thorax 2.22414 -0.137282 0.897803
lowerneck -13.185 1.57351 -0.939402
upperneck 38.798 -2.75432 1.9588
head 16.0682 -2.52623 0.115769
rclavicle -2.19906e-015 -3.18055e-015
rhumerus -48.4364 -25.8011 -58.9003
rradius 12.4941
rwrist 11.8338
rhand -24.8516 16.2929
rfingers 7.12502
rthumb 1.65485 -13.6804
lclavicle -2.19906e-015 -3.18055e-015
lhumerus -52.504 18.8686 70.9383
lradius 29.2389
lwrist -13.2875
lhand -14.4674 20.1427
lfingers 7.12502
lthumb 11.6784 49.7972
rfemur -25.4206 -20.2691 26.5705
rtibia 59.88
rfoot 35.0904 -18.2142
rtoes 19.3334
lfemur -38.2927 0.572954 -33.8624
ltibia 42.4624
lfoot -34.109 20.124
ltoes 4.44381
927
root -0.234647 16.3349 -0.648719 -159.371 -5.08975 178.582
lowerback -14.8389 0.674841 -0.924733
upperback -5.57569 0.289813 0.411942
thorax 2.41385 -0.154087 0.987865
lowerneck -13.4854 1.58214 -1.01059
upperneck 38.7067 -2.65058 2.00261
head 16.093 -2.4593 0.169516
rclavicle -8.4732e-015 -4.77083e-015
rhumerus -48.3155 -26.6413 -58.3467
rradius 12.1596
rwrist 12.5755
rhand -24.2393 15.6862
rfingers 7.12502
rthumb 2.24629 -14.2818
lclavicle -8.4732e-015 -4.77083e-015
lhumerus -52.0216 18.8086 71.404
lradius 28.8564
lwrist -12.5312
lhand -14.1675 20.0415
lfingers 7.12502
lthumb 11.9675 49.6794
rfemur -25.2531 -20.2626 26.5725
rtibia 59.8739
rfoot 34.0463 -19.6059
rtoes 23.0951
lfemur -38.3093 0.707944 -33.8914
ltibia 42.4897
lfoot -33.9446 20.1535
ltoes 3.94955
928
root -0.233831 16.342 -0.648408 -159.365 -5.09863 178.684
lowerback -15.0238 0.664263 -0.863287
upperback -5.39247 0.289217 0.45735
thorax 2.70573 -0.147314 1.00135
lowerneck -13.7478 1.54915 -1.04536
upperneck 38.5812 -2.59676 1.99465
head 16.0908 -2.41384 0.186981
rclavicle -2.19906e-015 -9.14409e-015
rhumerus -48.5266 -28.1084 -57.1531
rradius 11.7894
rwrist 14.2497
rhand -23.3902 15.3299
rfingers 7.12502
rthumb 3.06631 -14.6278
lclavicle -2.19906e-015 -9.14409e-015
lhumerus -51.629 18.6402 71.875
lradius 28.7829
lwrist -11.1831
lhand -13.684 20.1546
lfingers 7.12502
lthumb 12.4338 49.7648
rfemur -25.4314 -20.3066 26.7201
rtibia 59.9027
rfoot 34.9531 -17.9601
rtoes 18.9074
lfemur -38.3263 0.704091 -33.7765
ltibia 42.4781
lfoot -33.8249 20.283
ltoes 3.73651
